<svg xmlns="http://www.w3.org/2000/svg"  viewBox="0 0 24 24" width="24px" height="24px"><path d="M 12 1.9921875 C 6.4855957 1.9921875 2 6.4769321 2 12 C 2 16.599161 5.1205653 20.490345 9.3671875 21.642578 A 0.50005 0.50005 0 0 0 9.9980469 21.160156 L 9.9980469 17.583984 A 0.50005 0.50005 0 0 0 9.9980469 17.398438 L 9.9980469 17 C 9.9980469 16.463435 10.20474 15.989016 10.550781 15.621094 A 0.50005 0.50005 0 0 0 10.310547 14.794922 C 8.3191985 14.288505 7 12.945349 7 11.492188 C 7 10.73278 7.3615845 9.9960348 8.015625 9.3925781 A 0.50005 0.50005 0 0 0 8.1679688 8.9277344 C 8.066665 8.41934 8.082645 7.8782734 8.0742188 7.34375 C 8.6127591 7.5825374 9.1625862 7.7923277 9.640625 8.1757812 A 0.50005 0.50005 0 0 0 10.09375 8.265625 C 10.683558 8.0925899 11.325263 7.9921875 12 7.9921875 C 12.673669 7.9921875 13.314937 8.0917915 13.904297 8.265625 A 0.50005 0.50005 0 0 0 14.359375 8.1777344 C 14.837054 7.7945694 15.386932 7.5824899 15.925781 7.34375 C 15.916981 7.8785794 15.933881 8.4199143 15.832031 8.9277344 A 0.50005 0.50005 0 0 0 15.982422 9.3945312 C 16.637666 9.9982795 17.001953 10.733923 17.001953 11.494141 C 17.001953 12.945944 15.680991 14.28753 13.689453 14.794922 A 0.50005 0.50005 0 0 0 13.449219 15.623047 C 13.794633 15.990353 14.001953 16.464434 14.001953 17 L 13.998047 21.160156 A 0.50005 0.50005 0 0 0 14.630859 21.642578 C 18.878428 20.490372 22 16.599237 22 12 C 22 6.4769321 17.514404 1.9921875 12 1.9921875 z M 12 2.9921875 C 16.973596 2.9921875 21 7.0170679 21 12 C 21 15.899732 18.470363 19.145081 14.998047 20.388672 L 15.001953 17 C 15.001953 16.421513 14.688987 15.964437 14.404297 15.505859 C 16.432596 14.813419 18.001953 13.369173 18.001953 11.494141 C 18.001953 10.506223 17.528746 9.6094427 16.826172 8.8808594 C 16.963004 8.0965535 17.032667 7.2949738 16.970703 6.4570312 A 0.50005 0.50005 0 0 0 16.3125 6.0214844 C 15.491527 6.300863 14.703446 6.7215379 13.960938 7.2734375 C 13.34208 7.110241 12.692308 6.9921875 12 6.9921875 C 11.30618 6.9921875 10.656139 7.1108109 10.037109 7.2734375 C 9.2949426 6.7217093 8.5094793 6.2989123 7.6894531 6.0195312 A 0.50005 0.50005 0 0 0 7.0292969 6.4550781 C 6.9654142 7.294134 7.0380099 8.0939393 7.1738281 8.8769531 C 6.4709034 9.6061723 6 10.504427 6 11.492188 C 6 13.367279 7.5663139 14.813867 9.59375 15.505859 C 9.3112432 15.962509 9.0029789 16.419068 9 16.992188 L 7.5 16.992188 C 7.2241522 16.992188 7.0052524 16.845238 6.7363281 16.513672 C 6.4674039 16.182105 6.2065255 15.697988 5.9277344 15.234375 A 0.50005 0.50005 0 0 0 5.46875 14.988281 A 0.50005 0.50005 0 0 0 5.0722656 15.75 C 5.3304745 16.179387 5.5979086 16.697395 5.9589844 17.142578 C 6.3200601 17.587762 6.8328478 17.992188 7.5 17.992188 L 8.9980469 17.992188 L 8.9980469 20.388672 C 5.5278881 19.144471 3 15.898951 3 12 C 3 7.0170679 7.0264043 2.9921875 12 2.9921875 z"/></svg>